<?xml version="1.0" encoding="UTF-8" standalone="no"?>
<!-- Created with Inkscape (http://www.inkscape.org/) -->

<svg
   xmlns:dc="http://purl.org/dc/elements/1.1/"
   xmlns:cc="http://creativecommons.org/ns#"
   xmlns:rdf="http://www.w3.org/1999/02/22-rdf-syntax-ns#"
   xmlns:svg="http://www.w3.org/2000/svg"
   xmlns="http://www.w3.org/2000/svg"
   xmlns:sodipodi="http://sodipodi.sourceforge.net/DTD/sodipodi-0.dtd"
   xmlns:inkscape="http://www.inkscape.org/namespaces/inkscape"
   height="86.481995mm"
   width="112.23708mm"
   viewBox="0 0 397.69045 306.43226"
   id="svg2"
   version="1.1"
   inkscape:version="0.91 r13725"
   sodipodi:docname="sewing.svg"
   inkscape:export-filename="/home/algot/Documents/runeman.org/clipart/sewing.png"
   inkscape:export-xdpi="97.122299"
   inkscape:export-ydpi="97.122299">
  <title
     id="title3252">Sewing</title>
  <defs
     id="defs8" />
  <sodipodi:namedview
     pagecolor="#ffffff"
     bordercolor="#666666"
     borderopacity="1"
     objecttolerance="10"
     gridtolerance="10"
     guidetolerance="10"
     inkscape:pageopacity="0"
     inkscape:pageshadow="2"
     inkscape:window-width="1366"
     inkscape:window-height="712"
     id="namedview6"
     showgrid="false"
     inkscape:zoom="1"
     inkscape:cx="196.81113"
     inkscape:cy="91.666148"
     inkscape:window-x="0"
     inkscape:window-y="0"
     inkscape:window-maximized="1"
     inkscape:current-layer="svg2"
     fit-margin-top="0"
     fit-margin-left="0"
     fit-margin-right="0"
     fit-margin-bottom="0">
    <inkscape:grid
       type="xygrid"
       id="grid3140"
       originx="-149.3745"
       originy="-463.50002" />
  </sodipodi:namedview>
  <metadata
     id="metadata4">
    <rdf:RDF>
      <cc:Work
         rdf:about="">
        <dc:format>image/svg+xml</dc:format>
        <dc:type
           rdf:resource="http://purl.org/dc/dcmitype/StillImage" />
        <dc:title>Sewing</dc:title>
        <dc:date>2017-05-06</dc:date>
        <dc:creator>
          <cc:Agent>
            <dc:title>Algot Runeman</dc:title>
          </cc:Agent>
        </dc:creator>
        <dc:rights>
          <cc:Agent>
            <dc:title>Algot Runeman</dc:title>
          </cc:Agent>
        </dc:rights>
        <dc:publisher>
          <cc:Agent>
            <dc:title>runeman.org</dc:title>
          </cc:Agent>
        </dc:publisher>
        <dc:identifier>sewing.svg</dc:identifier>
        <cc:license
           rdf:resource="http://creativecommons.org/publicdomain/zero/1.0/" />
      </cc:Work>
      <cc:License
         rdf:about="http://creativecommons.org/publicdomain/zero/1.0/">
        <cc:permits
           rdf:resource="http://creativecommons.org/ns#Reproduction" />
        <cc:permits
           rdf:resource="http://creativecommons.org/ns#Distribution" />
        <cc:permits
           rdf:resource="http://creativecommons.org/ns#DerivativeWorks" />
      </cc:License>
    </rdf:RDF>
  </metadata>
  <path
     style="fill:#803300;fill-rule:evenodd;stroke:#000000;stroke-width:1px;stroke-linecap:butt;stroke-linejoin:miter;stroke-opacity:1"
     d="m 207.19046,127.81093 190,0 0,10 -190,0 z"
     id="path3142"
     inkscape:connector-curvature="0" />
  <path
     style="fill:#552200;fill-rule:evenodd;stroke:#000000;stroke-width:1px;stroke-linecap:butt;stroke-linejoin:miter;stroke-opacity:1"
     d="m 217.19046,138.81093 0,20 170,0 0,-20 z"
     id="path3144"
     inkscape:connector-curvature="0" />
  <g
     id="g3224"
     transform="translate(-162.80954,-282.42995)">
    <path
       sodipodi:nodetypes="ccccc"
       inkscape:connector-curvature="0"
       id="path3146"
       d="m 390,442.3622 0,146 6,0 4,-146 z"
       style="fill:#2b1100;fill-rule:evenodd;stroke:#000000;stroke-width:1px;stroke-linecap:butt;stroke-linejoin:miter;stroke-opacity:1" />
    <path
       sodipodi:nodetypes="ccccc"
       inkscape:connector-curvature="0"
       id="path3148"
       d="m 530,442.3622 4,146 6,0 0,-146 z"
       style="fill:#2b1100;fill-rule:evenodd;stroke:#000000;stroke-width:1px;stroke-linecap:butt;stroke-linejoin:miter;stroke-opacity:1" />
  </g>
  <g
     id="g3189"
     transform="translate(-179.37451,-284.42995)">
    <path
       sodipodi:nodetypes="csccscc"
       inkscape:connector-curvature="0"
       id="path3156"
       d="m 441.36874,373.6005 c 0,0 -8.32189,14.41468 -11.33643,22.23934 -1.65344,4.29173 -3.64265,13.39636 -3.64265,13.39636 l 63.58433,0 c 0,0 -1.95221,-9.12207 -3.64265,-13.39636 -3.06614,-7.75276 -11.65829,-21.88562 -11.65829,-21.88562 z"
       style="fill:#ff00ff;fill-rule:evenodd;stroke:#000000;stroke-width:1.10311103px;stroke-linecap:butt;stroke-linejoin:miter;stroke-opacity:1" />
    <path
       sodipodi:nodetypes="ccccccccccc"
       inkscape:connector-curvature="0"
       id="path3154"
       d="m 440.88551,372.35912 0,20.00942 12.74465,0 1.82067,10.00471 5.46199,0 1.82066,-10.00471 12.74465,0 0,-20.00942 -3.64132,-10.0047 -27.30997,0 z"
       style="fill:#000000;fill-rule:evenodd;stroke:#000000;stroke-width:0.95433784px;stroke-linecap:butt;stroke-linejoin:miter;stroke-opacity:1" />
    <g
       transform="matrix(0.91033214,0,0,-1.0004708,81.315415,693.30384)"
       id="g3177">
      <path
         inkscape:connector-curvature="0"
         style="opacity:1;fill:#000000;fill-opacity:1;stroke:none;stroke-width:3;stroke-linecap:round;stroke-linejoin:bevel;stroke-miterlimit:4;stroke-dasharray:none;stroke-dashoffset:0;stroke-opacity:1"
         d="m 413.98781,317.96614 a 15,15 0 0 0 -15,15 15,15 0 0 0 15,15 15,15 0 0 0 15,-15 15,15 0 0 0 -15,-15 z m 0,3.5 a 11.5,11.5 0 0 1 11.5,11.5 11.5,11.5 0 0 1 -11.5,11.5 11.5,11.5 0 0 1 -11.5,-11.5 11.5,11.5 0 0 1 11.5,-11.5 z"
         id="path3152" />
      <path
         style="fill:#000000;fill-rule:evenodd;stroke:#000000;stroke-width:1px;stroke-linecap:butt;stroke-linejoin:miter;stroke-opacity:1"
         d="m 418.98781,319.96701 -2,12 c -1.688,1.55999 -3.39039,3.04806 -6,0 l -2,-12 z"
         id="path3161"
         inkscape:connector-curvature="0"
         sodipodi:nodetypes="ccccc"
         inkscape:transform-center-y="-7.4246212" />
      <path
         inkscape:transform-center-y="5.0210791"
         sodipodi:nodetypes="ccccc"
         inkscape:connector-curvature="0"
         id="path3163"
         d="m 400.86267,335.68782 11.3923,-4.26794 c 2.19499,0.68185 4.3349,1.41213 3,5.19615 l -9.3923,7.73205 z"
         style="fill:#000000;fill-rule:evenodd;stroke:#000000;stroke-width:1px;stroke-linecap:butt;stroke-linejoin:miter;stroke-opacity:1"
         inkscape:transform-center-x="7.4901959" />
      <path
         inkscape:transform-center-x="-7.5346199"
         style="fill:#000000;fill-rule:evenodd;stroke:#000000;stroke-width:1px;stroke-linecap:butt;stroke-linejoin:miter;stroke-opacity:1"
         d="m 420.69874,343.64097 -6.91743,-6.67139 c -0.50699,-2.24184 -0.94451,-4.4602 3,-5.19615 l 11.3923,4.26794 z"
         id="path3165"
         inkscape:connector-curvature="0"
         sodipodi:nodetypes="ccccc"
         inkscape:transform-center-y="5.0210791" />
    </g>
    <path
       sodipodi:nodetypes="ccccc"
       inkscape:connector-curvature="0"
       id="path3183"
       d="m 426.78877,409.7929 1.52605,2.49833 4.57813,0 1.52605,-2.49833 z"
       style="fill:#000000;fill-rule:evenodd;stroke:#000000;stroke-width:0.6174587px;stroke-linecap:butt;stroke-linejoin:miter;stroke-opacity:1" />
    <path
       style="fill:#000000;fill-rule:evenodd;stroke:#000000;stroke-width:0.6174587px;stroke-linecap:butt;stroke-linejoin:miter;stroke-opacity:1"
       d="m 481.4087,409.7929 1.52605,2.49833 4.57813,0 1.52604,-2.49833 z"
       id="path3185"
       inkscape:connector-curvature="0"
       sodipodi:nodetypes="ccccc" />
    <path
       inkscape:connector-curvature="0"
       id="path3187"
       d="m 458.18182,402.37325 0,5.00235"
       style="fill:none;fill-rule:evenodd;stroke:#000000;stroke-width:0.95433784px;stroke-linecap:butt;stroke-linejoin:miter;stroke-opacity:1" />
  </g>
  <path
     style="fill:#0000ff;fill-rule:evenodd;stroke:#000000;stroke-width:1px;stroke-linecap:butt;stroke-linejoin:miter;stroke-opacity:1"
     d="m 209.48218,126.46508 c 0,0 9.46308,-7.84289 15.2028,-8.13172 6.49179,-0.32667 11.78935,9.23819 18.03122,7.42462 2.35494,-0.68422 1.90196,-5.27888 4.24264,-6.01041 6.22748,-1.94626 11.97282,5.51077 18.38478,6.71751 10.65776,2.0058 21.99602,3.29776 32.52691,0.70711 3.79034,-0.93244 6.35051,-5.57778 10.25305,-5.65685 3.42509,-0.0694 5.7752,4.35334 9.19238,4.59619 5.57611,0.39628 10.32255,-5.4805 15.90991,-5.3033 4.70283,0.14915 8.37759,5.41445 13.08147,5.3033 3.3738,-0.0797 5.8244,-4.02928 9.19239,-4.24264 4.68694,-0.29691 13.43503,4.24264 13.43503,4.24264 0,0 -8.72899,-1.95453 -13.08148,-1.41421 -3.36736,0.41802 -6.15279,3.55668 -9.54594,3.53553 -4.92433,-0.0307 -8.86509,-5.20715 -13.78858,-5.3033 -5.85005,-0.11425 -10.79252,6.21486 -16.61701,5.65685 -2.83745,-0.27184 -4.57651,-4.1275 -7.42462,-4.24264 -4.1616,-0.16824 -7.23469,4.46136 -11.31371,5.3033 -11.08555,2.28813 -22.86568,1.27594 -33.94112,-1.06066 -5.22483,-1.10229 -9.58622,-6.91287 -14.84925,-6.0104 -4.03213,0.69141 -5.11089,7.85324 -9.19238,8.13172 -5.51113,0.37602 -8.32119,-8.4041 -13.78859,-9.19238 -5.49718,-0.79258 -15.9099,4.94974 -15.9099,4.94974 z"
     id="path3201"
     inkscape:connector-curvature="0"
     sodipodi:nodetypes="csssssssssscssssssssssc" />
  <path
     sodipodi:nodetypes="csssssssssscssssssssssc"
     inkscape:connector-curvature="0"
     id="path3203"
     d="m 211.95705,125.40442 c 0,0 9.46308,-7.84289 15.2028,-8.13172 6.49179,-0.32667 11.78935,9.23819 18.03122,7.42462 2.35494,-0.68422 1.90196,-5.27888 4.24264,-6.01041 6.22748,-1.94626 11.97282,5.51077 18.38478,6.71751 10.65776,2.0058 21.99602,3.29776 32.52691,0.70711 3.79034,-0.93244 6.35051,-5.57778 10.25305,-5.65685 3.42509,-0.0694 5.7752,4.35334 9.19238,4.59619 5.57611,0.39628 10.32255,-5.4805 15.90991,-5.3033 4.70283,0.14915 8.37759,5.41445 13.08147,5.3033 3.3738,-0.0797 5.8244,-4.02928 9.19239,-4.24264 4.68694,-0.29691 10.96016,4.94974 10.96016,4.94974 0,0 -6.25412,-2.66163 -10.60661,-2.12131 -3.36736,0.41802 -6.15279,3.55668 -9.54594,3.53553 -4.92433,-0.0307 -8.86509,-5.20715 -13.78858,-5.3033 -5.85005,-0.11425 -10.79252,6.21486 -16.61701,5.65685 -2.83745,-0.27184 -4.57651,-4.1275 -7.42462,-4.24264 -4.1616,-0.16824 -7.23469,4.46136 -11.31371,5.3033 -11.08555,2.28813 -22.86568,1.27594 -33.94112,-1.06066 -5.22483,-1.10229 -9.58622,-6.91287 -14.84925,-6.0104 -4.03213,0.69141 -5.11089,7.85324 -9.19238,8.13172 -5.51113,0.37602 -8.32119,-8.4041 -13.78859,-9.19238 -5.49718,-0.79258 -15.9099,4.94974 -15.9099,4.94974 z"
     style="fill:#0000ff;fill-rule:evenodd;stroke:none;stroke-width:1px;stroke-linecap:butt;stroke-linejoin:miter;stroke-opacity:1" />
  <path
     style="fill:#000000;fill-rule:evenodd;stroke:#000000;stroke-width:1px;stroke-linecap:butt;stroke-linejoin:miter;stroke-opacity:1"
     d="m 16.625492,83.932263 c 9.180082,-13.463621 5.839644,-4.105421 10,0 l 0,129.999997 99.999998,6 12,85.99999 -10,0 -14,-54 -83.999998,0 -16,54 -14.00000011,0 14.00000011,-62 0,-37.99999 z"
     id="path3241"
     inkscape:connector-curvature="0"
     sodipodi:nodetypes="ccccccccccccc" />
  <path
     style="fill:#000000;fill-rule:evenodd;stroke:#000000;stroke-width:0.30025122px;stroke-linecap:butt;stroke-linejoin:miter;stroke-opacity:1"
     d="m 40.673502,206.12643 -2.402007,-15.01256 2.402007,-16.21356 6.605532,-18.61558 8.40703,-12.61055 -2.402008,-0.6005 1.801508,-6.00503 4.203515,0 -2.402007,-13.21105 -2.402007,-15.61306 1.801507,-12.010056 3.603007,-16.213561 7.80654,-15.613061 12.610545,-12.010055 18.015078,-5.404514 -1.801508,-2.402017 9.007536,-2.402007 5.40452,4.804024 3.00251,-3.603016 -2.402,-6.605531 -6.00503,-7.206031 0,-7.806531 4.80402,-9.608039 6.60553,-6.6055221 5.40451,1.2009991 1.80151,2.4020164 6.00503,-6.6055315 8.40703,-2.40200739 c 0,0 6.52278,1.22749899 9.60804,2.40200739 4.4348,1.6882654 8.38644,4.4434314 12.61056,6.6055315 3.18743,1.6314766 6.70322,2.7103366 9.60804,4.8040146 3.21502,2.317273 7.92281,4.473612 8.40703,8.40703 0.14262,1.158423 -1.80151,3.002516 -1.80151,3.002516 l -2.40201,1.801508 0,12.010046 -1.20101,4.804024 -3.0025,2.402007 0.60049,10.208547 0.6005,7.806531 -1.8015,0.600499 -4.80402,0 -4.80402,4.804024 -1.80151,-0.600508 0.60051,1.801507 -4.80403,6.005023 -3.60301,3.002516 -3.00251,0 2.40201,5.404524 -0.6005,3.603015 2.40201,0 1.80151,5.404524 c 0,0 1.60393,-4.702063 3.60301,-4.804024 3.53673,-0.180387 7.20603,7.80653 7.20603,7.80653 l 7.80653,3.603018 18.01507,-1.20101 10.80905,1.80151 13.21105,2.40201 9.60804,7.20603 9.00754,9.00753 -2.40202,1.80151 -7.80653,-7.20603 1.80151,6.00502 -2.40201,2.40202 -6.00502,1.201 -1.20101,-1.201 -9.00754,1.201 -1.8015,-3.60302 -13.21106,6.00504 c 0,0 -9.97576,3.23948 -13.81155,6.60552 -3.58885,3.14933 -4.06873,9.03903 -7.80653,12.01004 -3.66819,2.91568 -8.59632,3.99103 -13.21106,4.80403 -5.71682,1.00716 -12.05158,2.22142 -17.41457,0 -3.13838,-1.29996 -7.20603,-7.20603 -7.20603,-7.20603 l 7.80653,15.61306 55.84674,2.40201 c 0,0 18.16289,-1.67312 25.2211,3.00251 8.0723,5.34741 11.33186,16.04128 14.41206,25.2211 1.99029,5.93163 42.86978,66.61306 38.75296,71.32446 -20.74475,23.74082 -85.70512,19.424 -122.38794,-2.42688 -19.64295,-11.70073 -44.00566,-13.8726 -64.66824,-22.6493 C 61.794687,225.13786 42.47501,209.12895 42.47501,209.12895 Z"
     id="path3239"
     inkscape:connector-curvature="0"
     sodipodi:nodetypes="ccccccccccccccccccccccccccccsssscccccccccccccccccccsccccccccccccccccsssscccssssscc" />
  <path
     style="fill:#000000;fill-rule:evenodd;stroke:#000000;stroke-width:0.90877384px;stroke-linecap:butt;stroke-linejoin:miter;stroke-opacity:1"
     d="m 238.50958,287.89043 4,16.35793 c 2.99996,1.24099 3.05881,1.42308 8.72284,0 l 0,-12.72284 10.90528,1.81755 c 0,0 11.20135,9.77355 18.17548,10.90529 5.51353,0.89472 12.86283,0.72194 16.35793,-3.6351 1.89548,-2.36294 1.59257,-6.51091 0,-9.08774 -2.13666,-3.45718 -6.94985,-4.51889 -10.90529,-5.45264 -4.71714,-1.11356 -14.54038,-6 -14.54038,-6 l -10.90529,-12.72283 -21.81057,0 z"
     id="path3243"
     inkscape:connector-curvature="0"
     sodipodi:nodetypes="cccccsssscccc" />
  <path
     inkscape:connector-curvature="0"
     id="path3245"
     d="m 164.16266,266.75537 -4.17896,16.16638 7.0183,4.36142 6.36141,-11.01829 8.53548,7.02668 c 0,0 4.81388,14.06481 10.28778,18.53199 4.32749,3.53162 10.77857,7.05664 15.98393,5.03088 2.823,-1.09862 4.63466,-4.84233 4.54387,-7.87021 -0.12181,-4.06234 -4.19977,-6.98475 -6.71793,-10.17478 -3.0484,-3.86175 -10.09234,-10.77019 -10.09234,-10.77019 l -5.58284,-12.97093 -18.88851,-10.90529 z"
     style="fill:#000000;fill-rule:evenodd;stroke:#000000;stroke-width:0.90877384px;stroke-linecap:butt;stroke-linejoin:miter;stroke-opacity:1"
     sodipodi:nodetypes="cccccsssscccc" />
</svg>
